<svg width="270" height="142" viewBox="0 0 270 142" fill="none" xmlns="http://www.w3.org/2000/svg">
<path d="M68.1092 68.6854C65.5951 66.6455 63.2714 64.8291 60.0717 63.7952C58.9289 63.432 58.6622 63.0128 59.0813 62.0907C60.8335 58.2065 64.0333 55.0489 68.1092 52.3663C72.2613 49.6278 76.4896 46.9732 80.6797 44.2906C81.0226 44.0671 81.4416 43.8714 82.0892 43.8714C79.4608 46.3584 76.8324 48.8175 74.0136 51.4721C78.8513 51.7795 83.4605 52.2545 88.0697 52.3104C99.8784 52.4222 111.649 52.3942 123.458 52.3104C128.257 52.2825 133.095 52.031 137.857 51.7515C138.657 51.6956 139.609 51.1368 140.066 50.6058C146.466 43.1729 153.817 36.2987 162.35 30.1511C163.607 29.229 164.979 28.4186 166.54 27.4127C164.75 27.245 163.226 27.0494 161.703 27.0215C151.265 26.7979 140.79 26.5185 130.352 26.4905C125.515 26.4905 120.601 26.77 115.801 27.3568C112.982 27.7201 110.354 28.9496 107.649 29.8438C104.602 30.8497 101.554 31.9395 98.5071 32.9734C98.4309 32.8617 98.3166 32.7499 98.2404 32.6661C100.983 31.1851 103.764 29.7599 106.468 28.223C111.573 25.3169 117.591 24.4786 123.801 24.1992C131.686 23.8359 139.571 23.3888 147.494 23.3329C154.846 23.277 162.198 23.5565 169.512 23.9197C176.102 24.2271 182.692 24.758 189.282 25.3448C195.91 25.9317 202.462 26.6861 209.395 27.3847C200.024 39.8196 190.729 52.1427 181.32 64.6056C187.758 65.3042 194.043 66.0028 200.557 66.7293C200.176 68.7412 199.833 70.5855 199.452 72.4577C198.614 76.5654 197.814 80.6731 196.976 84.7808C196.672 86.3736 196.214 87.9664 196.024 89.5592C195.91 90.6769 195.11 91.0402 193.738 91.3197C181.777 93.8625 169.854 96.4892 157.855 99.06C155.113 99.6468 152.256 100.094 149.475 100.541C148.18 100.737 147.38 101.044 146.999 102.134C145.78 105.487 143.456 108.393 140.028 110.852C134.466 114.82 125.781 114.904 120.296 110.88C118.963 109.902 117.668 108.84 116.677 107.695C115.877 106.772 114.887 106.465 113.592 106.381C107.306 105.906 101.021 105.571 94.774 104.928C88.3744 104.285 82.013 103.391 75.6515 102.637C75.0801 102.581 74.2802 102.721 73.8231 102.972C67.9568 106.325 60.186 106.018 55.0054 102.106C53.5198 100.988 52.4532 99.5909 50.9676 98.4732C50.1676 97.8584 48.8344 97.6349 47.844 97.1319C47.1583 96.7686 46.2441 96.2377 46.1679 95.7347C45.6727 91.6829 45.1394 87.6031 44.987 83.5513C44.7966 77.5993 47.8059 72.6254 54.0911 68.7971C54.5482 68.5177 55.4244 68.3221 55.9196 68.4618C59.8812 69.4398 63.8047 69.1883 68.1092 68.6854ZM106.849 89.7828C106.811 89.7828 106.773 89.7828 106.735 89.7828C106.735 87.7429 106.849 85.703 106.697 83.6631C106.545 81.4276 103.726 79.4436 100.678 79.2201C98.05 79.0245 95.4216 78.8568 92.7932 78.6333C87.2698 78.1862 81.7844 77.7111 76.2991 77.264C71.8042 76.9007 67.2712 76.6493 62.7762 76.286C59.805 76.0345 57.1005 77.3479 56.91 79.5275C56.6433 82.4056 56.5291 85.2838 56.7957 88.162C57.0624 91.0402 59.5765 92.6889 63.6143 93.1919C67.195 93.639 70.7376 94.1419 74.3183 94.6449C82.9272 95.8186 91.5361 97.0481 100.145 98.1938C104.411 98.7526 106.926 96.9363 106.887 94.1419C106.849 92.6609 106.849 91.2079 106.849 89.7828ZM189.167 28.6142C186.691 28.4466 184.177 28.1671 181.663 28.1392C176.94 28.0833 172.369 28.4186 168.597 30.9056C164.064 33.8956 159.76 37.0812 156.789 40.9933C153.322 45.576 152.141 50.4941 153.97 55.6636C154.77 57.955 156.598 59.6596 159.912 60.1626C163.302 60.6655 165.931 59.9669 167.264 57.3961C167.493 56.949 168.064 56.5858 168.369 56.1107C169.093 55.0209 170.197 54.6577 171.835 54.5459C175.759 54.2385 179.263 53.4281 180.292 50.0749C180.406 49.7396 181.206 49.4043 181.777 49.2925C184.177 48.8454 186.577 48.4542 189.129 48.0071C189.167 41.5521 189.167 35.181 189.167 28.6142ZM103.573 72.6533C104.259 72.7372 104.907 72.8489 105.554 72.9048C109.782 73.1284 113.973 73.3519 118.01 72.0106C121.858 70.7252 124.143 67.6794 123.191 64.9968C116.22 64.6615 106.621 68.5456 103.573 72.6533ZM148.332 95.8465C148.256 95.8744 148.18 95.8744 148.104 95.9024C148.218 94.9523 148.37 94.0022 148.484 93.0521C148.789 89.4754 148.904 85.9265 147.189 82.4895C146.351 80.8129 144.942 79.4157 142.504 78.9406C138.009 78.0744 134.124 79.4157 130.162 80.8129C130.352 81.0085 130.352 81.0644 130.391 81.0644C130.657 81.0923 130.886 81.1202 131.152 81.0923C138.2 80.9805 142.923 83.4954 145.399 88.19C146.732 90.6769 147.38 93.3036 148.332 95.8465ZM125.324 98.8365C125.705 100.373 126.048 101.798 126.429 103.224C126.657 103.252 126.848 103.28 127.076 103.335C128.867 101.91 130.657 100.513 132.752 98.8365C129.933 98.8365 127.762 98.8365 125.324 98.8365ZM131.19 108.058C133.171 105.822 133.743 103.587 133.4 101.1C131.724 102.721 130.086 104.369 128.295 106.074C129.286 106.745 130.2 107.387 131.19 108.058ZM133.171 94.6729C133.324 94.617 133.514 94.5611 133.667 94.5052C133.667 92.2138 133.667 89.9225 133.667 87.3517C132.295 88.0502 130.086 88.0223 130.467 89.4195C130.962 91.2638 132.257 92.9404 133.171 94.6729ZM132.6 96.9642C130.771 95.092 129.21 93.4434 127.534 91.6829C125.324 95.8465 125.743 96.2936 132.6 96.9642ZM136.066 94.5052C136.295 94.5611 136.523 94.617 136.752 94.6729C137.819 93.6669 138.771 92.605 139.914 91.655C141.171 90.621 141.209 89.7548 139.685 88.9165C139.304 88.6929 138.923 88.4973 138.085 88.0223C137.361 90.3137 136.714 92.4094 136.066 94.5052ZM137.476 96.9363C139.99 96.9363 141.78 96.9363 143.723 96.9363C143.418 95.5391 143.113 94.2537 142.733 92.5212C140.828 94.114 139.304 95.3994 137.476 96.9363ZM136.942 101.379C136.79 101.435 136.676 101.463 136.523 101.519C136.523 103.643 136.523 105.739 136.523 107.89C139.266 106.996 139.99 106.381 139.38 105.18C138.733 103.866 137.78 102.637 136.942 101.379ZM143.418 99.8704C141.514 99.4512 139.685 99.06 137.857 98.6688C137.781 98.7806 137.704 98.8924 137.628 98.9762C139.038 100.429 140.409 101.854 141.971 103.475C142.504 102.246 142.885 101.212 143.418 99.8704Z" fill="black"/>
<path d="M195.568 112.696C198.806 96.573 202.082 80.4495 205.358 64.1025C199.644 63.4598 193.968 62.8171 187.873 62.1465C203.605 41.3006 219.147 20.6503 234.727 0C234.841 0.0279436 234.994 0.083829 235.108 0.111773C231.87 16.2632 228.632 32.4145 225.356 48.6777C231.26 49.3204 236.898 49.9351 242.841 50.5778C227.108 71.4237 211.529 92.102 195.911 112.808C195.796 112.78 195.682 112.752 195.568 112.696Z" fill="#6BB650"/>
<path d="M242.345 141.73C239.831 141.73 237.584 141.73 235.108 141.73C235.108 140.165 235.108 138.656 235.108 137.091C233.165 137.091 231.413 137.091 229.47 137.091C229.47 138.6 229.47 140.109 229.47 141.702C226.956 141.702 224.67 141.702 222.194 141.702C222.156 141.283 222.08 140.891 222.08 140.472C222.08 135.247 222.08 130.049 222.08 124.824C222.08 122.477 223.185 121.694 226.423 121.694C230.308 121.694 234.155 121.722 238.041 121.694C240.517 121.666 242.498 122.449 242.422 124.852C242.193 130.441 242.345 136.029 242.345 141.73ZM229.47 132.257C231.451 132.257 233.165 132.257 234.955 132.257C234.955 130.217 234.955 128.233 234.955 126.249C233.051 126.249 231.26 126.249 229.47 126.249C229.47 128.289 229.47 130.217 229.47 132.257Z" fill="black"/>
<path d="M266.877 135.722C267.906 137.706 268.896 139.634 270.001 141.786C267.639 141.786 265.506 141.814 263.411 141.758C263.068 141.758 262.611 141.255 262.42 140.919C261.658 139.662 260.782 138.404 260.325 137.091C259.83 135.638 258.725 135.414 256.897 135.778C256.897 137.678 256.897 139.634 256.897 141.674C254.459 141.674 252.173 141.674 249.697 141.674C249.697 135.107 249.697 128.484 249.697 121.694C251.602 121.694 253.392 121.694 255.221 121.694C258.839 121.694 262.458 121.666 266.077 121.694C268.744 121.722 269.886 122.56 269.924 124.517C269.963 127.255 269.924 129.993 269.963 132.732C269.963 134.325 269.01 135.303 266.877 135.722ZM262.458 126.249C260.516 126.249 258.763 126.249 256.935 126.249C256.935 127.954 256.935 129.602 256.935 131.307C258.839 131.307 260.63 131.307 262.458 131.307C262.458 129.574 262.458 127.982 262.458 126.249Z" fill="black"/>
<path d="M216.061 129.295C213.585 129.295 211.262 129.295 208.785 129.295C208.709 128.317 208.595 127.311 208.519 126.249C206.69 126.249 205.014 126.249 203.224 126.249C203.224 129.938 203.224 133.542 203.224 137.231C204.938 137.231 206.614 137.231 208.557 137.231C208.557 136.309 208.557 135.359 208.557 134.325C211.109 134.325 213.433 134.325 215.985 134.325C215.985 136.169 216.214 138.069 215.909 139.913C215.718 141.031 214.537 141.814 212.671 141.786C208.176 141.73 203.643 141.786 199.148 141.758C196.977 141.758 195.91 140.947 195.91 139.354C195.91 134.381 195.91 129.379 195.91 124.405C195.91 122.7 197.091 121.722 199.453 121.694C203.719 121.638 207.947 121.638 212.214 121.694C214.842 121.75 216.061 122.784 216.099 124.712C216.061 126.221 216.061 127.702 216.061 129.295Z" fill="black"/>
<path d="M118.354 121.862C123.039 121.862 127.724 121.862 132.372 121.862C138.428 121.862 138.619 122.002 138.619 126.361C138.619 128.373 138.581 130.357 138.619 132.369C138.657 133.961 138.085 135.247 135.457 135.582C136.524 137.65 137.514 139.606 138.581 141.702C136.143 141.702 133.895 141.702 131.534 141.702C130.734 140.221 129.934 138.712 129.172 137.203C128.258 135.47 128.296 135.47 125.439 135.694C125.439 137.65 125.439 139.634 125.439 141.702C123.001 141.702 120.753 141.702 118.354 141.702C118.354 135.163 118.354 128.624 118.354 121.862ZM131.457 126.277C129.21 126.277 127.381 126.277 125.439 126.277C125.439 127.227 125.439 128.065 125.439 128.876C125.439 129.686 125.439 130.496 125.439 131.419C127.229 131.419 128.753 131.474 130.238 131.391C130.657 131.363 131.381 130.916 131.381 130.636C131.495 129.211 131.457 127.786 131.457 126.277Z" fill="#6BB650"/>
<path d="M89.9747 129.211C87.4987 129.211 85.2512 129.211 82.7752 129.211C82.7752 128.233 82.7752 127.283 82.7752 126.249C80.8325 126.249 79.0802 126.249 77.2137 126.249C77.2137 129.91 77.2137 133.514 77.2137 137.231C79.004 137.231 80.7944 137.231 82.7371 137.231C82.7371 136.281 82.7371 135.359 82.7371 134.353C85.2131 134.353 87.4987 134.353 89.9747 134.353C89.9747 136.225 90.127 138.097 89.8985 139.913C89.7461 141.087 88.4891 141.758 86.8511 141.786C82.2038 141.814 77.5946 141.814 72.9473 141.786C71.1951 141.786 69.938 140.863 69.8999 139.438C69.8237 134.381 69.8237 129.295 69.8999 124.237C69.938 122.756 71.157 121.918 73.1759 121.918C77.6708 121.89 82.1657 121.89 86.6987 121.918C88.87 121.946 89.9366 122.784 89.9747 124.349C90.0128 125.914 89.9747 127.479 89.9747 129.211Z" fill="#6BB650"/>
<path d="M179.873 134.353C179.873 136.225 179.949 138.013 179.835 139.83C179.759 141.087 178.578 141.758 176.94 141.786C172.255 141.842 167.569 141.814 162.846 141.786C161.132 141.786 159.913 140.891 159.875 139.55C159.837 134.436 159.837 129.323 159.913 124.181C159.951 122.7 161.132 121.89 163.189 121.89C167.646 121.862 172.064 121.862 176.521 121.89C178.845 121.918 179.835 122.728 179.873 124.405C179.873 125.97 179.873 127.562 179.873 129.183C177.473 129.183 175.226 129.183 172.75 129.183C172.674 128.233 172.636 127.283 172.559 126.249C170.769 126.249 169.093 126.249 167.227 126.249C167.227 129.91 167.227 133.542 167.227 137.259C169.017 137.259 170.769 137.259 172.674 137.259C172.674 136.281 172.674 135.359 172.674 134.353C175.112 134.353 177.359 134.353 179.873 134.353Z" fill="#6BB650"/>
<path d="M7.1233 137.286C10.6278 137.286 14.0561 137.286 17.6368 137.286C17.6368 138.795 17.6368 140.192 17.6368 141.701C11.8087 141.701 5.98053 141.701 0 141.701C0 135.135 0 128.568 0 121.917C5.82816 121.917 11.6563 121.917 17.6368 121.917C17.6368 123.287 17.6368 124.656 17.6368 126.165C14.1323 126.165 10.6659 126.165 7.1233 126.165C7.1233 127.31 7.1233 128.316 7.1233 129.49C9.6755 129.49 12.1896 129.518 14.7037 129.462C15.9608 129.434 16.6083 129.63 16.456 130.692C16.3417 131.698 16.4179 132.731 16.4179 133.905C13.2562 133.905 10.2469 133.905 7.1233 133.905C7.1233 135.079 7.1233 136.085 7.1233 137.286Z" fill="#6BB650"/>
<path d="M45.9014 121.918C51.8057 121.918 57.6339 121.918 63.5763 121.918C63.5763 123.259 63.5763 124.6 63.5763 126.081C60.1861 126.081 56.7197 126.081 53.139 126.081C53.139 127.283 53.139 128.317 53.139 129.463C56.0721 129.463 58.9671 129.463 62.0145 129.463C62.0145 130.972 62.0145 132.397 62.0145 133.961C59.0814 133.961 56.1483 133.961 53.1009 133.961C53.1009 135.107 53.1009 136.113 53.1009 137.287C56.5292 137.287 59.9575 137.287 63.5382 137.287C63.5382 138.824 63.5382 140.193 63.5382 141.674C57.7101 141.674 51.8819 141.674 45.8633 141.674C45.9014 135.163 45.9014 128.624 45.9014 121.918Z" fill="#6BB650"/>
<path d="M107.23 141.73C104.678 141.73 102.468 141.73 99.9923 141.73C99.9923 136.588 99.9923 131.502 99.9923 126.277C97.8591 126.277 95.9925 126.277 93.9355 126.277C93.9355 124.768 93.9355 123.399 93.9355 121.946C100.259 121.946 106.658 121.946 113.134 121.946C113.134 123.343 113.134 124.712 113.134 126.221C111.191 126.221 109.287 126.221 107.192 126.221C107.23 131.447 107.23 136.532 107.23 141.73Z" fill="#6BB650"/>
<path d="M31.426 121.918C31.426 127.031 31.426 132.089 31.426 137.315C34.3591 137.315 37.1399 137.315 39.9588 137.315C39.9588 138.852 39.9588 140.221 39.9588 141.702C34.8544 141.702 29.7499 141.702 24.4932 141.702C24.4932 135.163 24.4932 128.596 24.4932 121.946C26.7025 121.918 28.9119 121.918 31.426 121.918Z" fill="#6BB650"/>
<path d="M152.675 141.73C150.237 141.73 148.028 141.73 145.704 141.73C145.704 135.135 145.704 128.596 145.704 121.946C147.99 121.946 150.275 121.946 152.675 121.946C152.675 128.54 152.675 135.079 152.675 141.73Z" fill="#6BB650"/>
<path d="M156.142 56.0827C157.741 55.5239 159.303 55.0488 160.751 54.4341C161.208 54.2385 161.589 53.6516 161.627 53.2325C161.855 51.6397 161.665 49.9631 162.122 48.4262C162.998 45.4921 166.617 44.1229 170.503 44.7097C172.94 45.073 175.302 45.6598 177.702 46.2466C178.159 46.3584 178.692 46.7496 178.769 47.057C179.645 49.9072 177.55 52.2824 173.664 52.9531C172.255 53.2045 170.807 53.2884 169.398 53.5119C168.941 53.5958 168.369 53.8193 168.103 54.0987C166.998 55.2165 166.008 56.3901 164.979 57.5637C163.189 59.6316 158.58 59.5198 156.865 57.3402C156.675 56.949 156.446 56.5857 156.142 56.0827Z" fill="black"/>
</svg>
